<svg width="298" height="223" viewBox="0 0 298 223" fill="none" xmlns="http://www.w3.org/2000/svg">
<path d="M298 195.311H0V195.162H298V195.311Z" fill="#EBEBEB"/>
<path d="M248.413 204.756H268.141V204.905H248.413V204.756Z" fill="#EBEBEB"/>
<path d="M192.24 206.365H197.396V206.514H192.24V206.365Z" fill="#EBEBEB"/>
<path d="M236.374 199.213H247.817V199.362H236.374V199.213Z" fill="#EBEBEB"/>
<path d="M31.2599 200.225H57.0071V200.374H31.2599V200.225Z" fill="#EBEBEB"/>
<path d="M62.3119 200.225H66.0965V200.374H62.3119V200.225Z" fill="#EBEBEB"/>
<path d="M78.3444 202.73H134.19V202.879H78.3444V202.73Z" fill="#EBEBEB"/>
<path fill-rule="evenodd" clip-rule="evenodd" d="M141.252 168.579H26.1644C24.287 168.579 22.7672 167.059 22.7672 165.181V3.3972C22.7672 1.5198 24.287 0 26.1644 0H141.252C143.129 0 144.649 1.5198 144.649 3.3972V165.181C144.649 167.059 143.129 168.579 141.252 168.579ZM26.1644 0.149C24.3764 0.149 22.9162 1.6092 22.9162 3.3972V165.181C22.9162 166.969 24.3764 168.43 26.1644 168.43H141.252C143.04 168.43 144.5 166.969 144.5 165.181V3.3972C144.5 1.6092 143.04 0.149 141.252 0.149H26.1644Z" fill="#EBEBEB"/>
<path fill-rule="evenodd" clip-rule="evenodd" d="M270.167 168.579H155.079C153.202 168.579 151.682 167.059 151.682 165.181V3.3972C151.682 1.5198 153.202 0 155.079 0H270.167C272.044 0 273.564 1.5198 273.564 3.3972V165.181C273.564 167.059 272.044 168.579 270.167 168.579ZM155.079 0.149C153.291 0.149 151.831 1.6092 151.831 3.3972V165.181C151.831 166.969 153.291 168.43 155.079 168.43H270.167C271.955 168.43 273.415 166.969 273.415 165.181V3.3972C273.415 1.6092 271.955 0.149 270.167 0.149H155.079Z" fill="#EBEBEB"/>
<path d="M172.661 70.9838H254.76V17.2246H172.661V70.9838Z" fill="#E6E6E6"/>
<path d="M170.158 70.9838H253.598V17.2246H170.158V70.9838Z" fill="#F0F0F0"/>
<path d="M172.661 70.9824H254.76V81.5316H172.661V70.9824Z" fill="#E6E6E6"/>
<path d="M165.986 70.9824H249.426V81.5316H165.986V70.9824Z" fill="#F0F0F0"/>
<path d="M250.082 67.4671V20.7109H173.645V67.4671H250.082Z" fill="#FAFAFA"/>
<path d="M232.857 67.4671L223.083 20.7109H207.855L217.629 67.4671H232.857Z" fill="white"/>
<path d="M248.473 63.981C248.622 63.981 248.711 63.8916 248.711 63.7426V23.006C248.711 22.857 248.622 22.7676 248.473 22.7676C248.324 22.7676 248.234 22.857 248.234 23.006V63.7426C248.234 63.8916 248.324 63.981 248.473 63.981Z" fill="#F0F0F0"/>
<path d="M214.351 67.4671L204.577 20.7109H198.646L208.421 67.4671H214.351Z" fill="white"/>
<path d="M174.092 67.4671V20.7109H173.645V67.4671H174.092Z" fill="#E6E6E6"/>
<path opacity="0.6" d="M169.324 26.0156H251.452L251.75 22.082H169.651L169.324 26.0156Z" fill="#EBEBEB"/>
<path opacity="0.6" d="M169.324 32.4531H251.452L251.75 28.5195H169.651L169.324 32.4531Z" fill="#EBEBEB"/>
<path opacity="0.6" d="M169.324 38.8887H251.452L251.75 34.9551H169.651L169.324 38.8887Z" fill="#EBEBEB"/>
<path opacity="0.6" d="M169.324 45.3262H251.452L251.75 41.3926H169.651L169.324 45.3262Z" fill="#EBEBEB"/>
<path opacity="0.6" d="M169.324 51.7637H251.452L251.75 47.8301H169.651L169.324 51.7637Z" fill="#EBEBEB"/>
<path opacity="0.6" d="M169.324 58.1992H251.452L251.75 54.2656H169.651L169.324 58.1992Z" fill="#EBEBEB"/>
<path d="M242.989 159.458H225.765V156.061H242.989V159.458Z" fill="#E6E6E6"/>
<path d="M193.283 195.159H196.472V117.053H193.283V195.159Z" fill="#E6E6E6"/>
<path d="M182.287 159.458H225.765V156.061H182.287V159.458Z" fill="#F5F5F5"/>
<path d="M242.989 178.024H225.765V174.627H242.989V178.024Z" fill="#E6E6E6"/>
<path d="M182.287 178.024H225.765V174.627H182.287V178.024Z" fill="#F5F5F5"/>
<path d="M242.989 122.298H225.765V118.9H242.989V122.298Z" fill="#E6E6E6"/>
<path d="M182.287 122.298H225.765V118.9H182.287V122.298Z" fill="#F5F5F5"/>
<path d="M242.989 140.862H225.765V137.465H242.989V140.862Z" fill="#E6E6E6"/>
<path d="M182.287 140.862H225.765V137.465H182.287V140.862Z" fill="#F5F5F5"/>
<path d="M236.761 195.16H239.95V117.055H236.761V195.16Z" fill="#E6E6E6"/>
<path d="M222.576 195.16H225.765V117.055H222.576V195.16Z" fill="#F5F5F5"/>
<path d="M182.287 195.16H185.446V117.055H182.287V195.16Z" fill="#F5F5F5"/>
<path d="M38.9481 195.161H71.4897V132.045H38.9481V195.161Z" fill="#E6E6E6"/>
<path d="M47.6497 195.161H38.9481V186.459H56.7685L47.6497 195.161Z" fill="#FAFAFA"/>
<path d="M127.663 195.161H160.175V132.045H127.663V195.161Z" fill="#E6E6E6"/>
<path d="M38.9481 192.152H135.232V132.045H38.9481V192.152Z" fill="#FAFAFA"/>
<path d="M126.56 195.161H135.232V186.459H117.441L126.56 195.161Z" fill="#FAFAFA"/>
<path d="M45.7128 169.504H128.497V154.455H45.7128V169.504Z" fill="#F0F0F0"/>
<path d="M45.7128 187.74H128.497V172.721H45.7128V187.74Z" fill="#F0F0F0"/>
<path d="M61.447 156.063H112.763C114.253 156.063 115.474 154.841 115.474 153.321V153.143H58.7054V153.321C58.7054 154.841 59.9272 156.063 61.447 156.063Z" fill="#FAFAFA"/>
<path d="M45.7128 151.237H128.497V136.188H45.7128V151.237Z" fill="#F0F0F0"/>
<path d="M61.447 137.795H112.763C114.253 137.795 115.474 136.574 115.474 135.084V134.875H58.7054V135.084C58.7054 136.574 59.9272 137.795 61.447 137.795Z" fill="#FAFAFA"/>
<path d="M61.447 174.331H112.763C114.253 174.331 115.474 173.109 115.474 171.589V171.41H58.7054V171.589C58.7054 173.109 59.9272 174.331 61.447 174.331Z" fill="#FAFAFA"/>
<path d="M44.1335 70.9838H126.262V17.2246H44.1335V70.9838Z" fill="#E6E6E6"/>
<path d="M41.6299 70.9838H125.1V17.2246H41.6299V70.9838Z" fill="#F0F0F0"/>
<path d="M44.1335 70.9824H126.262V81.5316H44.1335V70.9824Z" fill="#E6E6E6"/>
<path d="M37.4583 70.9824H120.928V81.5316H37.4583V70.9824Z" fill="#F0F0F0"/>
<path d="M121.584 67.4671V20.7109H45.147V67.4671H121.584Z" fill="#FAFAFA"/>
<path d="M104.359 67.4671L94.585 20.7109H79.3572L89.1018 67.4671H104.359Z" fill="white"/>
<path d="M119.945 63.981C120.094 63.981 120.213 63.8916 120.213 63.7426V23.006C120.213 22.857 120.094 22.7676 119.945 22.7676C119.826 22.7676 119.706 22.857 119.706 23.006V63.7426C119.706 63.8916 119.826 63.981 119.945 63.981Z" fill="#F0F0F0"/>
<path d="M85.8534 67.4671L76.079 20.7109H70.1488L79.8934 67.4671H85.8534Z" fill="white"/>
<path d="M45.594 67.4671V20.7109H45.147V67.4671H45.594Z" fill="#E6E6E6"/>
<path opacity="0.6" d="M40.7959 26.0156H122.925L123.253 22.082H41.1237L40.7959 26.0156Z" fill="#EBEBEB"/>
<path opacity="0.6" d="M40.7959 28.2207H122.925L123.253 24.2871H41.1237L40.7959 28.2207Z" fill="#EBEBEB"/>
<path opacity="0.6" d="M40.7959 30.4253H122.925L123.253 26.5215H41.1237L40.7959 30.4253Z" fill="#EBEBEB"/>
<path opacity="0.6" d="M40.7959 32.6602H122.925L123.253 28.7266H41.1237L40.7959 32.6602Z" fill="#EBEBEB"/>
<path opacity="0.6" d="M40.7959 34.8652H122.925L123.253 30.9316H41.1237L40.7959 34.8652Z" fill="#EBEBEB"/>
<path opacity="0.6" d="M40.7959 37.0718H122.925L123.253 33.168H41.1237L40.7959 37.0718Z" fill="#EBEBEB"/>
<path d="M57.2161 130.106H60.0769V98.4883H57.2161V130.106Z" fill="#F5F5F5"/>
<path d="M57.6034 130.105H58.3782V98.457H57.6034V130.105Z" fill="#FAFAFA"/>
<path d="M58.7357 130.105H59.0337V98.457H58.7357V130.105Z" fill="#FAFAFA"/>
<path d="M48.1267 132.043H69.1655C69.1655 130.583 67.9735 129.391 66.5133 129.391H50.7789C49.3187 129.391 48.1267 130.583 48.1267 132.043Z" fill="#F0F0F0"/>
<path d="M53.5506 118.126C53.9976 118.126 54.3552 117.738 54.3552 117.291V96.5507C54.3552 96.1037 53.9976 95.7461 53.5506 95.7461C53.1036 95.7461 52.7162 96.1037 52.7162 96.5507V117.291C52.7162 117.738 53.1036 118.126 53.5506 118.126Z" fill="#F0F0F0"/>
<path d="M45.922 105.997H71.3414L68.421 88.2363H48.8722L45.922 105.997Z" fill="#E0E0E0"/>
<path d="M264.564 215.337C264.564 219.062 212.832 222.072 149 222.072C85.1683 222.072 33.4355 219.062 33.4355 215.337C33.4355 211.612 85.1683 208.572 149 208.572C212.832 208.572 264.564 211.612 264.564 215.337Z" fill="#F5F5F5"/>
<path d="M62.2519 98.8815L61.4473 87.9151L62.0433 87.8555L62.8479 98.8517L62.2519 98.8815Z" fill="#0052CC"/>
<path d="M62.9671 108.715L62.6691 104.573L63.2651 104.514L63.5631 108.656L62.9671 108.715Z" fill="#0052CC"/>
<path d="M201.269 155.083H73.6355C70.7449 155.083 68.2119 152.729 68.0033 149.838L61.7453 62.7331C61.5367 59.8723 63.7121 57.4883 66.6027 57.4883H194.236C197.127 57.4883 199.66 59.8723 199.868 62.7331L206.156 149.838C206.365 152.729 204.16 155.083 201.269 155.083Z" fill="#0052CC"/>
<path d="M201.776 155.085H74.1124C71.2516 155.085 68.7186 152.731 68.51 149.84L62.2222 62.735C62.0136 59.8742 64.2188 57.4902 67.1094 57.4902H194.743C197.633 57.4902 200.166 59.8742 200.375 62.735L206.633 149.84C206.842 152.731 204.666 155.085 201.776 155.085Z" fill="#0052CC"/>
<path opacity="0.5" d="M201.776 155.085H74.1124C71.2516 155.085 68.7186 152.731 68.51 149.84L62.2222 62.735C62.0136 59.8742 64.2188 57.4902 67.1094 57.4902H194.743C197.633 57.4902 200.166 59.8742 200.375 62.735L206.633 149.84C206.842 152.731 204.666 155.085 201.776 155.085Z" fill="white"/>
<path d="M194.922 60.1113H67.2884C67.1494 60.1113 67.0103 60.1213 66.8712 60.1411C63.5932 60.4093 64.2786 65.3859 67.5566 65.3859H195.399C198.706 65.3859 198.647 60.4093 195.369 60.1411C195.21 60.1213 195.061 60.1113 194.922 60.1113Z" fill="#0052CC"/>
<path d="M70.6254 62.733C70.6552 63.4184 70.1486 63.9548 69.493 63.9548C68.8374 63.9548 68.2414 63.4184 68.2116 62.733C68.152 62.0774 68.6586 61.541 69.3142 61.541C69.9996 61.541 70.5658 62.0774 70.6254 62.733Z" fill="#FAFAFA"/>
<path d="M74.7086 62.733C74.7682 63.4184 74.2616 63.9548 73.5762 63.9548C72.9206 63.9548 72.3544 63.4184 72.2948 62.733C72.265 62.0774 72.7418 61.541 73.4272 61.541C74.0828 61.541 74.649 62.0774 74.7086 62.733Z" fill="#FAFAFA"/>
<path d="M78.791 62.733C78.8506 63.4184 78.344 63.9548 77.6884 63.9548C77.0328 63.9548 76.4368 63.4184 76.407 62.733C76.3474 62.0774 76.854 61.541 77.5096 61.541C78.1652 61.541 78.7612 62.0774 78.791 62.733Z" fill="#FAFAFA"/>
<path d="M198.378 146.411H76.258C75.215 146.411 74.2912 145.546 74.2316 144.503L69.0762 72.8642C68.9868 71.8212 69.7616 70.957 70.8344 70.957H192.955C193.998 70.957 194.922 71.8212 194.981 72.8642L200.137 144.503C200.226 145.546 199.421 146.411 198.378 146.411Z" fill="white"/>
<path d="M146.944 119.113L144.948 91.5184L138.928 87.8828H122.359L124.594 119.113H146.944Z" fill="white"/>
<path fill-rule="evenodd" clip-rule="evenodd" d="M146.945 119.412H124.595C124.446 119.412 124.326 119.293 124.297 119.144L122.062 87.9137C122.062 87.8243 122.091 87.7349 122.151 87.6753C122.181 87.6157 122.27 87.5859 122.36 87.5859H138.928C138.968 87.5859 139.018 87.6058 139.077 87.6455L145.097 91.2513C145.186 91.3109 145.216 91.4003 145.246 91.4897L147.213 119.085C147.213 119.174 147.213 119.263 147.153 119.323C147.094 119.383 147.004 119.412 146.945 119.412ZM124.863 118.816H146.617L144.68 91.6685L138.839 88.1819H122.658L124.863 118.816Z" fill="#0052CC"/>
<path d="M144.948 91.5204L138.928 87.8848L141.133 92.6826L144.948 91.5204Z" fill="#EBEBEB"/>
<path fill-rule="evenodd" clip-rule="evenodd" d="M141.133 92.98C141.014 92.98 140.925 92.9204 140.865 92.8012L138.66 88.0034C138.6 87.8842 138.63 87.765 138.72 87.6756C138.809 87.5862 138.958 87.5564 139.077 87.6458L145.097 91.2516C145.186 91.3112 145.246 91.4304 145.246 91.5496C145.216 91.6688 145.127 91.7582 145.037 91.788L141.223 92.9502C141.183 92.97 141.153 92.98 141.133 92.98ZM139.584 88.5994L141.282 92.3244L144.233 91.4304L139.584 88.5994Z" fill="#0052CC"/>
<path d="M131.686 101.949C131.746 102.634 131.209 103.2 130.524 103.2C129.839 103.2 129.213 102.634 129.183 101.949C129.123 101.263 129.66 100.697 130.345 100.697C131.031 100.697 131.656 101.263 131.686 101.949Z" fill="#0052CC"/>
<path d="M139.881 101.949C139.941 102.634 139.404 103.2 138.719 103.2C138.004 103.2 137.408 102.634 137.348 101.949C137.318 101.263 137.825 100.697 138.54 100.697C139.225 100.697 139.821 101.263 139.881 101.949Z" fill="#0052CC"/>
<path d="M142.205 110.143C142.056 110.143 141.907 110.024 141.907 109.875C141.758 107.848 138.57 106.179 134.815 106.179C132.312 106.179 130.077 106.924 128.974 108.116C128.477 108.653 128.249 109.219 128.289 109.815C128.289 109.994 128.169 110.113 128.02 110.143C127.871 110.143 127.722 110.024 127.722 109.875C127.663 109.1 127.961 108.385 128.557 107.729C129.749 106.418 132.163 105.613 134.815 105.613C138.957 105.613 142.324 107.461 142.473 109.815C142.503 109.994 142.384 110.113 142.205 110.143Z" fill="#0052CC"/>
<path d="M127.037 99.3862C126.978 99.3862 126.918 99.3664 126.859 99.3266C126.739 99.2074 126.739 99.0286 126.829 98.9094L128.11 97.5386C128.2 97.4194 128.378 97.4194 128.498 97.5386C128.617 97.628 128.647 97.8366 128.527 97.926L127.246 99.2968C127.216 99.3564 127.127 99.3862 127.037 99.3862Z" fill="#0052CC"/>
<path d="M141.609 99.3862C141.53 99.3862 141.46 99.3664 141.401 99.3266L139.94 97.9558C139.821 97.8366 139.821 97.6578 139.94 97.5386C140.03 97.4194 140.209 97.4194 140.328 97.5386L141.788 98.9094C141.907 98.9988 141.907 99.1776 141.818 99.2968C141.758 99.3564 141.669 99.3862 141.609 99.3862Z" fill="#0052CC"/>
<path d="M120.54 125.279H121.881L123.847 127.872L123.639 125.279H125.01L125.337 129.958H123.996L122.059 127.395L122.238 129.958H120.867L120.54 125.279Z" fill="#0052CC"/>
<path fill-rule="evenodd" clip-rule="evenodd" d="M125.963 127.603C125.904 126.848 126.073 126.262 126.47 125.845C126.867 125.408 127.443 125.189 128.198 125.189C128.973 125.189 129.589 125.398 130.046 125.815C130.483 126.232 130.731 126.819 130.791 127.573C130.831 128.13 130.771 128.577 130.612 128.914C130.453 129.272 130.205 129.55 129.867 129.749C129.529 129.928 129.102 130.017 128.586 130.017C128.069 130.017 127.632 129.938 127.275 129.779C126.917 129.6 126.619 129.332 126.381 128.974C126.142 128.616 126.003 128.16 125.963 127.603ZM127.394 127.633C127.433 128.09 127.543 128.428 127.722 128.646C127.92 128.845 128.169 128.944 128.467 128.944C128.784 128.944 129.023 128.845 129.182 128.646C129.321 128.448 129.37 128.09 129.331 127.573C129.311 127.117 129.202 126.789 129.003 126.59C128.824 126.391 128.576 126.292 128.258 126.292C127.98 126.292 127.751 126.391 127.573 126.59C127.414 126.809 127.354 127.156 127.394 127.633Z" fill="#0052CC"/>
<path fill-rule="evenodd" clip-rule="evenodd" d="M133.592 125.279H135.737C136.154 125.279 136.502 125.339 136.78 125.458C137.039 125.577 137.267 125.736 137.466 125.935C137.644 126.153 137.784 126.402 137.883 126.68C137.982 126.978 138.042 127.286 138.062 127.604C138.101 128.1 138.072 128.488 137.972 128.766C137.873 129.044 137.734 129.272 137.555 129.451C137.356 129.63 137.148 129.749 136.929 129.809C136.611 129.908 136.323 129.958 136.065 129.958H133.919L133.592 125.279ZM135.111 126.322L135.29 128.885H135.648C135.946 128.885 136.164 128.845 136.303 128.766C136.423 128.706 136.512 128.597 136.572 128.438C136.631 128.259 136.651 127.981 136.631 127.604C136.592 127.127 136.482 126.789 136.303 126.591C136.125 126.412 135.847 126.322 135.469 126.322H135.111Z" fill="#0052CC"/>
<path fill-rule="evenodd" clip-rule="evenodd" d="M141.519 129.183H139.88L139.701 129.958H138.241L139.641 125.279H141.221L143.307 129.958H141.817L141.519 129.183ZM141.131 128.17L140.505 126.501L140.118 128.17H141.131Z" fill="#0052CC"/>
<path d="M142.651 125.279H147.062L147.121 126.442H145.661L145.899 129.958H144.469L144.231 126.442H142.741L142.651 125.279Z" fill="#0052CC"/>
<path fill-rule="evenodd" clip-rule="evenodd" d="M150.399 129.183H148.76L148.611 129.958H147.121L148.551 125.279H150.131L152.217 129.958H150.697L150.399 129.183ZM150.041 128.17L149.386 126.501L148.998 128.17H150.041Z" fill="#0052CC"/>
<path d="M210.805 70.4179C211.342 70.1497 211.967 69.7921 212.563 69.4643C213.159 69.1464 213.745 68.8087 214.322 68.4511C215.484 67.7359 216.676 67.0207 217.778 66.2161C220.043 64.6665 222.159 62.9381 224.066 61.0607C224.305 60.8521 224.513 60.5839 224.752 60.3455L225.079 59.9879L225.258 59.8091L225.348 59.7197C225.377 59.6899 225.348 59.6899 225.348 59.6899L225.318 59.7197C225.258 59.8985 225.318 59.8389 225.348 59.6899C225.377 59.5409 225.437 59.3025 225.437 59.0343C225.467 57.9615 225.258 56.5907 224.99 55.2795C224.483 52.5975 223.679 49.8559 222.874 47.1441L225.199 46.1309C226.629 48.7235 227.851 51.3757 228.834 54.2365C229.311 55.6967 229.728 57.1569 229.847 58.9449C229.877 59.4217 229.877 59.8985 229.818 60.4349C229.728 61.0011 229.579 61.6567 229.073 62.4017L228.983 62.5507L228.894 62.6401L228.804 62.7593L228.626 62.9679L228.268 63.4149C228 63.7129 227.761 64.0407 227.523 64.3089C225.467 66.5737 223.172 68.6001 220.729 70.3583C219.507 71.2523 218.285 72.0867 216.974 72.8615C216.338 73.2389 215.692 73.6065 215.037 73.9641C214.351 74.3515 213.726 74.6793 212.951 75.0369L210.805 70.4179Z" fill="#FFB573"/>
<path fill-rule="evenodd" clip-rule="evenodd" d="M204.547 210.269C204.388 210.11 204.319 209.902 204.339 209.644C204.369 209.435 204.488 209.346 204.577 209.316C205.173 209.048 206.693 210.031 206.842 210.12C206.902 210.15 206.902 210.21 206.902 210.24C206.902 210.299 206.872 210.329 206.812 210.359C206.455 210.418 205.948 210.538 205.501 210.538C205.114 210.538 204.756 210.448 204.547 210.269ZM204.696 209.524C204.637 209.524 204.607 209.584 204.577 209.673C204.557 209.852 204.597 209.991 204.696 210.091C204.965 210.329 205.62 210.359 206.484 210.18C205.859 209.793 204.994 209.375 204.696 209.524Z" fill="#0052CC"/>
<path fill-rule="evenodd" clip-rule="evenodd" d="M206.723 210.327C206.246 210.059 205.352 208.986 205.471 208.42C205.471 208.301 205.561 208.122 205.859 208.092C206.037 208.072 206.206 208.122 206.365 208.241C206.902 208.718 206.902 210.178 206.902 210.238C206.902 210.277 206.882 210.307 206.842 210.327C206.822 210.347 206.802 210.357 206.782 210.357C206.763 210.357 206.743 210.347 206.723 210.327ZM205.888 208.331C205.739 208.331 205.71 208.42 205.68 208.48C205.62 208.807 206.186 209.612 206.663 209.999C206.633 209.523 206.514 208.718 206.186 208.42C206.127 208.36 206.047 208.331 205.948 208.331C205.928 208.331 205.908 208.331 205.888 208.331Z" fill="#0052CC"/>
<path d="M206.335 55.4863C205.769 58.4663 204.547 64.4561 206.603 66.4229C206.603 66.4229 205.799 69.4327 200.315 69.4327C194.236 69.4327 197.425 66.4229 197.425 66.4229C200.703 65.6481 200.613 63.2045 200.047 60.8801L206.335 55.4863Z" fill="#FFB573"/>
<path d="M196.263 67.6147C195.309 67.7637 196.114 65.2903 196.501 65.0519C197.395 64.4559 208.928 63.6215 208.839 65.0221C208.809 65.6181 208.511 66.8101 208.004 67.1975C207.498 67.5849 204.547 66.3929 196.263 67.6147Z" fill="#263238"/>
<path d="M198.14 66.8123C197.365 67.0507 197.455 64.5773 197.693 64.2793C198.289 63.5939 207.646 61.18 207.915 62.5508C208.034 63.1468 208.064 64.3091 207.766 64.7561C207.438 65.2031 204.696 64.4581 198.14 66.8123Z" fill="#263238"/>
<path d="M194.653 50.1529C194.594 50.1529 194.504 50.1231 194.475 50.0635C193.789 49.2589 192.925 49.3483 192.925 49.3483C192.776 49.3483 192.687 49.2589 192.657 49.1397C192.657 48.9907 192.746 48.8715 192.865 48.8715C192.925 48.8715 193.998 48.7523 194.832 49.7655C194.922 49.8847 194.892 50.0337 194.802 50.0933C194.763 50.133 194.713 50.1529 194.653 50.1529Z" fill="#263238"/>
<path d="M193.491 53.0723C193.491 53.0723 192.985 54.8603 192.329 55.7841C192.895 56.2013 193.789 55.9033 193.789 55.9033L193.491 53.0723Z" fill="#FF5652"/>
<path d="M193.789 52.3574C193.849 52.7448 193.64 53.1024 193.402 53.1322C193.134 53.162 192.895 52.8342 192.836 52.4468C192.806 52.0296 192.985 51.7018 193.253 51.672C193.521 51.6422 193.759 51.9402 193.789 52.3574Z" fill="#263238"/>
<path d="M193.372 51.6729L192.389 51.4941C192.389 51.4941 192.955 52.2093 193.372 51.6729Z" fill="#263238"/>
<path d="M212.593 210.238H207.587L208.004 198.676H212.981L212.593 210.238Z" fill="#FFB573"/>
<path d="M207.199 209.641H212.802C213.01 209.641 213.189 209.79 213.219 209.998L213.845 214.438C213.904 214.885 213.517 215.332 213.04 215.303C211.103 215.273 210.15 215.154 207.676 215.154C206.156 215.154 203.951 215.332 201.865 215.332C199.809 215.332 199.66 213.246 200.524 213.068C204.428 212.233 205.054 211.071 206.365 209.968C206.603 209.76 206.901 209.641 207.199 209.641Z" fill="#263238"/>
<g opacity="0.2">
<path d="M212.98 198.676H208.004L207.795 204.636H212.772L212.98 198.676Z" fill="black"/>
</g>
<path d="M192.717 73.366C189.648 72.1442 186.697 70.833 183.747 69.343C180.827 67.8232 177.936 66.2438 175.165 64.0982C174.479 63.5618 173.794 62.9658 173.138 62.2804C172.96 62.1016 172.811 61.9228 172.632 61.7142C172.483 61.5056 172.334 61.3864 172.125 61.0586C171.708 60.4626 171.41 59.6878 171.321 58.913C171.231 58.1084 171.38 57.3634 171.619 56.7376C171.827 56.1416 172.125 55.635 172.453 55.188C173.079 54.3238 173.764 53.6682 174.479 53.102C175.88 51.9398 177.34 51.1054 178.83 50.3008C179.565 49.9233 180.31 49.5657 181.065 49.228C181.84 48.9002 182.585 48.6022 183.419 48.334L184.462 50.6286C181.87 52.2676 179.158 54.0556 177.191 56.082C176.714 56.5886 176.297 57.0952 176.029 57.572C175.731 58.019 175.761 58.3766 175.791 58.3468C175.82 58.3468 175.82 58.3468 175.88 58.4064L176.118 58.6746C176.208 58.764 176.327 58.8832 176.446 59.0024C176.923 59.4196 177.459 59.8666 178.055 60.2838C179.247 61.1182 180.529 61.9228 181.9 62.638C183.231 63.3929 184.602 64.1081 186.012 64.7836C188.843 66.1246 191.734 67.4358 194.594 68.598L192.717 73.366Z" fill="#FFB573"/>
<path d="M185.922 48.9898L186.757 47.2018L183.002 45.8906C183.002 45.8906 181.84 49.407 183.24 51.046C184.403 50.8374 185.446 50.0924 185.922 48.9898Z" fill="#FFB573"/>
<path d="M186.757 43.329L183.747 42.4648L183.002 45.8918L186.757 47.203V43.329Z" fill="#FFB573"/>
<path d="M225.496 47.3815L225.943 43.1797L222.069 44.1035C222.069 44.1035 222.01 48.0371 224.066 48.6331L225.496 47.3815Z" fill="#FFB573"/>
<path d="M224.066 40.2598L221.563 41.4518L222.07 44.104L225.944 43.1802L224.066 40.2598Z" fill="#FFB573"/>
<path d="M207.14 49.6472C207.319 54.594 207.497 56.68 205.262 59.4514C201.895 63.6234 195.786 62.7592 194.117 57.9614C192.627 53.6702 192.568 46.2798 197.216 43.866C201.746 41.4522 206.961 44.7004 207.14 49.6472Z" fill="#FFB573"/>
<path d="M204.964 59.4494C209.851 57.3634 213.04 52.9232 211.699 46.0096C210.388 39.3642 205.918 38.7086 204.07 40.0794C202.222 41.48 197.633 39.4238 194.862 41.7482C190.064 45.7712 194.594 50.122 196.948 52.6848C198.348 55.5754 200.196 61.5056 204.964 59.4494Z" fill="#263238"/>
<path d="M202.968 44.819C204.607 47.1732 207.736 47.8586 209.971 46.309C212.235 44.7594 212.712 41.5709 211.073 39.2167C209.434 36.8327 206.275 36.1472 204.04 37.6968C201.805 39.2464 201.329 42.435 202.968 44.819Z" fill="#0052CC"/>
<path d="M204.22 40.557C203.534 36.5638 207.289 33.4944 212.355 34.9844C217.391 36.4744 214.739 40.9444 213.696 44.5204C212.653 48.0964 215.365 51.4936 216.497 48.7818C217.659 46.0402 215.722 45.2058 215.722 45.2058C215.722 45.2058 221.086 46.6064 216.11 52.6558C211.133 58.7052 206.633 52.03 207.855 48.0666C208.839 44.9078 204.875 44.3416 204.22 40.557Z" fill="#263238"/>
<path d="M199.183 42.0773C196.859 40.8555 192.955 39.9019 190.75 43.6269C189.677 45.3851 190.094 47.7989 190.094 47.7989L196.889 48.2459L199.183 42.0773Z" fill="#263238"/>
<path d="M189.29 46.6368C189.2 46.607 189.141 46.5474 189.141 46.458C189.141 46.3686 189.319 43.9548 190.78 42.4648C194.266 38.8292 198.379 41.839 199.541 42.8522C199.6 42.9118 199.6 43.0012 199.541 43.0608C199.511 43.1204 199.392 43.1204 199.332 43.0906C198.23 42.1072 194.296 39.2166 190.988 42.6734C189.617 44.1039 189.439 46.458 189.439 46.4878C189.439 46.5772 189.379 46.6368 189.29 46.6368Z" fill="#263238"/>
<path d="M197.782 52.5068C197.782 53.4604 197.335 54.414 196.799 55.0398C195.964 56.0232 195.041 55.5464 194.802 54.4736C194.623 53.52 194.802 51.8512 195.845 51.2552C196.888 50.689 197.782 51.4042 197.782 52.5068Z" fill="#FFB573"/>
<path d="M196.71 97.832C196.71 97.832 197.038 132.489 200.048 151.8C202.462 167.415 206.962 203.473 206.962 203.473H213.756C213.756 203.473 214.441 168.667 213.19 153.23C210.091 114.192 218.137 106.891 211.64 97.832H196.71Z" fill="#263238"/>
<path opacity="0.1" d="M196.71 97.832C196.71 97.832 197.038 132.489 200.048 151.8C202.462 167.415 206.962 203.473 206.962 203.473H213.756C213.756 203.473 214.441 168.667 213.19 153.23C210.091 114.192 218.137 106.891 211.64 97.832H196.71Z" fill="white"/>
<path opacity="0.3" d="M200.286 113.566C202.67 124.026 200.763 140.505 199.482 147.746C198.081 136.75 197.396 122.476 197.038 112.016C198.29 109.99 199.452 109.871 200.286 113.566Z" fill="black"/>
<path d="M206.038 203.623H214.709L215.156 200.584L205.978 200.256L206.038 203.623Z" fill="#0052CC"/>
<path d="M208.511 68.5995C209.315 66.9605 213.696 65.9473 216.11 65.9473L217.898 73.9337C217.898 73.9337 213.13 80.9963 211.133 80.2513C208.779 79.3573 206.752 72.0563 208.511 68.5995Z" fill="#0052CC"/>
<path opacity="0.4" d="M208.511 68.5995C209.315 66.9605 213.696 65.9473 216.11 65.9473L217.898 73.9337C217.898 73.9337 213.13 80.9963 211.133 80.2513C208.779 79.3573 206.752 72.0563 208.511 68.5995Z" fill="black"/>
<path fill-rule="evenodd" clip-rule="evenodd" d="M203.445 201.685C202.878 202.281 201.835 203.294 201.12 203.205C200.902 203.185 200.723 203.076 200.584 202.877C200.524 202.758 200.524 202.629 200.584 202.49C200.882 201.864 203.087 201.536 203.325 201.477C203.385 201.477 203.415 201.506 203.445 201.536C203.465 201.576 203.465 201.616 203.445 201.655C203.445 201.675 203.445 201.685 203.445 201.685ZM200.792 202.609C200.773 202.649 200.773 202.698 200.792 202.758C200.872 202.897 200.981 202.967 201.12 202.967C201.537 203.026 202.223 202.579 203.027 201.775C202.133 201.924 201.001 202.251 200.792 202.579C200.792 202.579 200.792 202.589 200.792 202.609Z" fill="#0052CC"/>
<path fill-rule="evenodd" clip-rule="evenodd" d="M203.355 201.715C202.73 201.864 201.15 201.685 200.882 201.148C200.822 201.029 200.792 200.85 201.061 200.642C201.239 200.463 201.448 200.384 201.686 200.403C202.521 200.463 203.385 201.476 203.445 201.536C203.465 201.556 203.465 201.585 203.445 201.625C203.445 201.645 203.445 201.655 203.445 201.655C203.425 201.695 203.395 201.715 203.355 201.715ZM201.09 201.059C201.239 201.357 202.402 201.566 203.117 201.506C202.819 201.238 202.223 200.672 201.686 200.642C201.508 200.622 201.349 200.672 201.21 200.791C201.17 200.85 201.14 200.89 201.12 200.91C201.061 200.999 201.09 201.029 201.09 201.059Z" fill="#0052CC"/>
<path d="M208.659 199.539L204.07 201.566L202.044 197.334L199.392 191.791L199.064 191.166L203.653 189.109L203.981 189.854L206.573 195.218L208.659 199.539Z" fill="#FFB573"/>
<path opacity="0.2" d="M206.573 195.218L202.044 197.333L199.392 191.791L203.981 189.854L206.573 195.218Z" fill="black"/>
<path d="M191.346 97.832C191.346 97.832 176.774 134.099 180.737 151.174C184.283 166.61 200.107 195.814 200.107 195.814L206.216 192.775C206.216 192.775 196.442 157.492 195.369 149.833C193.313 134.903 206.574 113.864 206.574 97.832H191.346Z" fill="#263238"/>
<path opacity="0.1" d="M191.346 97.832C191.346 97.832 176.774 134.099 180.737 151.174C184.283 166.61 200.107 195.814 200.107 195.814L206.216 192.775C206.216 192.775 196.442 157.492 195.369 149.833C193.313 134.903 206.574 113.864 206.574 97.832H191.346Z" fill="white"/>
<path d="M203.266 200.94L207.796 197.632C207.975 197.513 208.183 197.543 208.332 197.692L211.461 200.88C211.789 201.238 211.729 201.804 211.342 202.072C209.733 203.205 208.898 203.682 206.902 205.112C205.68 206.006 203.236 207.973 201.538 209.224C199.869 210.416 198.528 208.837 199.124 208.181C201.806 205.201 202.372 203.354 202.789 201.685C202.849 201.387 203.028 201.119 203.266 200.94Z" fill="#263238"/>
<path d="M199.69 197.125L207.587 193.519L206.574 190.301L198.14 194.145L199.69 197.125Z" fill="#0052CC"/>
<path d="M195.22 68.1803C194.564 66.4817 188.872 64.6341 186.011 63.9785L184.76 73.3953C184.76 73.3953 189.438 80.1003 191.465 79.5341C193.908 78.8785 196.62 71.8159 195.22 68.1803Z" fill="#0052CC"/>
<path opacity="0.4" d="M195.22 68.1803C194.564 66.4817 188.872 64.6341 186.011 63.9785L184.76 73.3953C184.76 73.3953 189.438 80.1003 191.465 79.5341C193.908 78.8785 196.62 71.8159 195.22 68.1803Z" fill="black"/>
<path d="M188.961 67.7046C188.961 67.7046 186.607 68.539 191.345 97.8324C199.391 97.8324 207.706 97.8324 211.639 97.8324C211.282 89.6076 211.282 84.5118 215.215 67.5556C215.215 67.5556 210.984 66.6318 206.603 66.4232C203.206 66.2742 200.405 66.155 197.425 66.4232C193.461 66.8106 188.961 67.7046 188.961 67.7046Z" fill="#0052CC"/>
<path opacity="0.4" d="M188.961 67.7046C188.961 67.7046 186.607 68.539 191.345 97.8324C199.391 97.8324 207.706 97.8324 211.639 97.8324C211.282 89.6076 211.282 84.5118 215.215 67.5556C215.215 67.5556 210.984 66.6318 206.603 66.4232C203.206 66.2742 200.405 66.155 197.425 66.4232C193.461 66.8106 188.961 67.7046 188.961 67.7046Z" fill="black"/>
<path d="M211.938 96.671L212.862 98.459C212.921 98.608 212.743 98.757 212.534 98.757H191.257C191.078 98.757 190.929 98.6676 190.899 98.5484L190.72 96.7306C190.72 96.6114 190.869 96.4922 191.078 96.4922H211.61C211.759 96.4922 211.878 96.5518 211.938 96.671Z" fill="#0052CC"/>
<path opacity="0.3" d="M211.938 96.671L212.862 98.459C212.921 98.608 212.743 98.757 212.534 98.757H191.257C191.078 98.757 190.929 98.6676 190.899 98.5484L190.72 96.7306C190.72 96.6114 190.869 96.4922 191.078 96.4922H211.61C211.759 96.4922 211.878 96.5518 211.938 96.671Z" fill="white"/>
<path d="M209.167 98.9642H209.733C209.852 98.9642 209.912 98.9046 209.912 98.8152L209.643 96.461C209.643 96.4014 209.554 96.3418 209.435 96.3418H208.898C208.779 96.3418 208.69 96.4014 208.72 96.461L208.958 98.8152C208.988 98.9046 209.077 98.9642 209.167 98.9642Z" fill="#263238"/>
<path d="M195.846 98.9642H196.412C196.501 98.9642 196.591 98.9046 196.591 98.8152L196.323 96.461C196.323 96.4014 196.233 96.3418 196.114 96.3418H195.578C195.458 96.3418 195.369 96.4014 195.369 96.461L195.637 98.8152C195.637 98.9046 195.727 98.9642 195.846 98.9642Z" fill="#263238"/>
</svg>
